#Comment line ignore any data following # character 
#Hierarchical Translation and Rotation (.htr) file 
[Header]	
#Header keywords are followed by a single value 
FileType HTR		#Single word string
DataType HTRS		#Translation followed by rotation and scale data
FileVersion 1		#integer
NumSegments 84		#integer
NumFrames 2		#integer
DataFrameRate 30		#integer, data frame rate in this file
EulerRotationOrder ZYX
CalibrationUnits mm
RotationUnits Degrees
GlobalAxisofGravity Y
BoneLengthAxis Y
ScaleFactor 1.00
[SegmentNames&Hierarchy]
#CHILD	PARENT
MASTER GLOBAL
root MASTER
chest root
L_mid_tent01 root
R_mid_tent01 root
spine01 root
Bip01_Neck chest
L_humerus chest
R_humerus chest
weapon_bone chest
Bip01_Head Bip01_Neck
eye_left_bone Bip01_Head
eye_right_bone Bip01_Head
L_forearm L_humerus
L_front_hand L_forearm
L_weapon_bone L_forearm
L_front_hand01_01 L_front_hand
L_front_hand02_01 L_front_hand
L_front_hand03_01 L_front_hand
L_front_hand01_02 L_front_hand01_01
L_front_hand02_02 L_front_hand02_01
L_front_hand03_02 L_front_hand03_01
R_forearm R_humerus
R_front_hand R_forearm
R_weapon_bone R_forearm
R_front_hand01_01 R_front_hand
R_front_hand02_01 R_front_hand
R_front_hand03_01 R_front_hand
R_front_hand01_02 R_front_hand01_01
R_front_hand02_02 R_front_hand02_01
R_front_hand03_02 R_front_hand03_01
null_rope01_connect L_mid_tent01
Rope1_Seg01 null_rope01_connect
Rope1_Seg02 Rope1_Seg01
Rope1_Seg03 Rope1_Seg02
Rope1_Seg04 Rope1_Seg03
Rope1_Seg05 Rope1_Seg04
Rope1_Seg06 Rope1_Seg05
Rope1_Seg07 Rope1_Seg06
Rope1_Seg09 Rope1_Seg07
L_mid_hand01 Rope1_Seg09
L_mid_hand02 Rope1_Seg09
L_mid_hand03 Rope1_Seg09
null_rope02_connect R_mid_tent01
Rope2_Seg01 null_rope02_connect
Rope2_Seg02 Rope2_Seg01
Rope2_Seg03 Rope2_Seg02
Rope2_Seg04 Rope2_Seg03
Rope2_Seg05 Rope2_Seg04
Rope2_Seg06 Rope2_Seg05
Rope2_Seg07 Rope2_Seg06
Rope2_Seg09 Rope2_Seg07
R_mid_hand01 Rope2_Seg09
R_mid_hand02 Rope2_Seg09
R_mid_hand03 Rope2_Seg09
spine02 spine01
spine03 spine02
pelvis spine03
null_rope03_connect pelvis
null_rope04_connect pelvis
Rope3_Seg01 null_rope03_connect
Rope3_Seg02 Rope3_Seg01
Rope3_Seg03 Rope3_Seg02
Rope3_Seg04 Rope3_Seg03
Rope3_Seg05 Rope3_Seg04
Rope3_Seg06 Rope3_Seg05
Rope3_Seg07 Rope3_Seg06
Rope3_Seg08 Rope3_Seg07
Rope3_Seg09 Rope3_Seg08
R_rear_hand01 Rope3_Seg09
R_rear_hand02 Rope3_Seg09
R_rear_hand03 Rope3_Seg09
Rope4_Seg01 null_rope04_connect
Rope4_Seg02 Rope4_Seg01
Rope4_Seg03 Rope4_Seg02
Rope4_Seg04 Rope4_Seg03
Rope4_Seg05 Rope4_Seg04
Rope4_Seg06 Rope4_Seg05
Rope4_Seg07 Rope4_Seg06
Rope4_Seg08 Rope4_Seg07
Rope4_Seg09 Rope4_Seg08
L_rear_hand01 Rope4_Seg09
L_rear_hand02 Rope4_Seg09
L_rear_hand03 Rope4_Seg09
[BasePosition]
#SegmentName Tx, Ty, Tz, Rx, Ry, Rz, BoneLength
MASTER 0.000000 0.000000 0.000000 -90.000000 0.000000 0.000000 10.000000 
root 0.000000 0.000000 0.000000 0.000000 0.000000 0.000000 10.000000 
chest 0.000000 0.000000 0.000000 0.000000 0.000000 0.000000 10.000000 
L_mid_tent01 0.000000 0.000000 0.000000 0.000000 0.000000 0.000000 10.000000 
R_mid_tent01 0.000000 0.000000 0.000000 0.000000 0.000000 0.000000 10.000000 
spine01 0.000000 0.000000 0.000000 0.000000 0.000000 0.000000 10.000000 
Bip01_Neck 0.000000 0.000000 0.000000 0.000000 0.000000 0.000000 10.000000 
L_humerus 0.000000 0.000000 0.000000 0.000000 0.000000 0.000000 10.000000 
R_humerus 0.000000 0.000000 0.000000 0.000000 0.000000 0.000000 10.000000 
weapon_bone 0.000000 0.000000 0.000000 0.000000 0.000000 0.000000 10.000000 
Bip01_Head 0.000000 0.000000 0.000000 0.000000 0.000000 0.000000 10.000000 
eye_left_bone 0.000000 0.000000 0.000000 0.000000 0.000000 0.000000 10.000000 
eye_right_bone 0.000000 0.000000 0.000000 0.000000 0.000000 0.000000 10.000000 
L_forearm 0.000000 0.000000 0.000000 0.000000 0.000000 0.000000 10.000000 
L_front_hand 0.000000 0.000000 0.000000 0.000000 0.000000 0.000000 10.000000 
L_weapon_bone 0.000000 0.000000 0.000000 0.000000 0.000000 0.000000 10.000000 
L_front_hand01_01 0.000000 0.000000 0.000000 0.000000 0.000000 0.000000 10.000000 
L_front_hand02_01 0.000000 0.000000 0.000000 0.000000 0.000000 0.000000 10.000000 
L_front_hand03_01 0.000000 0.000000 0.000000 0.000000 0.000000 0.000000 10.000000 
L_front_hand01_02 0.000000 0.000000 0.000000 0.000000 0.000000 0.000000 10.000000 
L_front_hand02_02 0.000000 0.000000 0.000000 0.000000 0.000000 0.000000 10.000000 
L_front_hand03_02 0.000000 0.000000 0.000000 0.000000 0.000000 0.000000 10.000000 
R_forearm 0.000000 0.000000 0.000000 0.000000 0.000000 0.000000 10.000000 
R_front_hand 0.000000 0.000000 0.000000 0.000000 0.000000 0.000000 10.000000 
R_weapon_bone 0.000000 0.000000 0.000000 0.000000 0.000000 0.000000 10.000000 
R_front_hand01_01 0.000000 0.000000 0.000000 0.000000 0.000000 0.000000 10.000000 
R_front_hand02_01 0.000000 0.000000 0.000000 0.000000 0.000000 0.000000 10.000000 
R_front_hand03_01 0.000000 0.000000 0.000000 0.000000 0.000000 0.000000 10.000000 
R_front_hand01_02 0.000000 0.000000 0.000000 0.000000 0.000000 0.000000 10.000000 
R_front_hand02_02 0.000000 0.000000 0.000000 0.000000 0.000000 0.000000 10.000000 
R_front_hand03_02 0.000000 0.000000 0.000000 0.000000 0.000000 0.000000 10.000000 
null_rope01_connect 0.000000 0.000000 0.000000 0.000000 0.000000 0.000000 10.000000 
Rope1_Seg01 0.000000 0.000000 0.000000 0.000000 0.000000 0.000000 10.000000 
Rope1_Seg02 0.000000 0.000000 0.000000 0.000000 0.000000 0.000000 10.000000 
Rope1_Seg03 0.000000 0.000000 0.000000 0.000000 0.000000 0.000000 10.000000 
Rope1_Seg04 0.000000 0.000000 0.000000 0.000000 0.000000 0.000000 10.000000 
Rope1_Seg05 0.000000 0.000000 0.000000 0.000000 0.000000 0.000000 10.000000 
Rope1_Seg06 0.000000 0.000000 0.000000 0.000000 0.000000 0.000000 10.000000 
Rope1_Seg07 0.000000 0.000000 0.000000 0.000000 0.000000 0.000000 10.000000 
Rope1_Seg09 0.000000 0.000000 0.000000 0.000000 0.000000 0.000000 10.000000 
L_mid_hand01 0.000000 0.000000 0.000000 0.000000 0.000000 0.000000 10.000000 
L_mid_hand02 0.000000 0.000000 0.000000 0.000000 0.000000 0.000000 10.000000 
L_mid_hand03 0.000000 0.000000 0.000000 0.000000 0.000000 0.000000 10.000000 
null_rope02_connect 0.000000 0.000000 0.000000 0.000000 0.000000 0.000000 10.000000 
Rope2_Seg01 0.000000 0.000000 0.000000 0.000000 0.000000 0.000000 10.000000 
Rope2_Seg02 0.000000 0.000000 0.000000 0.000000 0.000000 0.000000 10.000000 
Rope2_Seg03 0.000000 0.000000 0.000000 0.000000 0.000000 0.000000 10.000000 
Rope2_Seg04 0.000000 0.000000 0.000000 0.000000 0.000000 0.000000 10.000000 
Rope2_Seg05 0.000000 0.000000 0.000000 0.000000 0.000000 0.000000 10.000000 
Rope2_Seg06 0.000000 0.000000 0.000000 0.000000 0.000000 0.000000 10.000000 
Rope2_Seg07 0.000000 0.000000 0.000000 0.000000 0.000000 0.000000 10.000000 
Rope2_Seg09 0.000000 0.000000 0.000000 0.000000 0.000000 0.000000 10.000000 
R_mid_hand01 0.000000 0.000000 0.000000 0.000000 0.000000 0.000000 10.000000 
R_mid_hand02 0.000000 0.000000 0.000000 0.000000 0.000000 0.000000 10.000000 
R_mid_hand03 0.000000 0.000000 0.000000 0.000000 0.000000 0.000000 10.000000 
spine02 0.000000 0.000000 0.000000 0.000000 0.000000 0.000000 10.000000 
spine03 0.000000 0.000000 0.000000 0.000000 0.000000 0.000000 10.000000 
pelvis 0.000000 0.000000 0.000000 0.000000 0.000000 0.000000 10.000000 
null_rope03_connect 0.000000 0.000000 0.000000 0.000000 0.000000 0.000000 10.000000 
null_rope04_connect 0.000000 0.000000 0.000000 0.000000 0.000000 0.000000 10.000000 
Rope3_Seg01 0.000000 0.000000 0.000000 0.000000 0.000000 0.000000 10.000000 
Rope3_Seg02 0.000000 0.000000 0.000000 0.000000 0.000000 0.000000 10.000000 
Rope3_Seg03 0.000000 0.000000 0.000000 0.000000 0.000000 0.000000 10.000000 
Rope3_Seg04 0.000000 0.000000 0.000000 0.000000 0.000000 0.000000 10.000000 
Rope3_Seg05 0.000000 0.000000 0.000000 0.000000 0.000000 0.000000 10.000000 
Rope3_Seg06 0.000000 0.000000 0.000000 0.000000 0.000000 0.000000 10.000000 
Rope3_Seg07 0.000000 0.000000 0.000000 0.000000 0.000000 0.000000 10.000000 
Rope3_Seg08 0.000000 0.000000 0.000000 0.000000 0.000000 0.000000 10.000000 
Rope3_Seg09 0.000000 0.000000 0.000000 0.000000 0.000000 0.000000 10.000000 
R_rear_hand01 0.000000 0.000000 0.000000 0.000000 0.000000 0.000000 10.000000 
R_rear_hand02 0.000000 0.000000 0.000000 0.000000 0.000000 0.000000 10.000000 
R_rear_hand03 0.000000 0.000000 0.000000 0.000000 0.000000 0.000000 10.000000 
Rope4_Seg01 0.000000 0.000000 0.000000 0.000000 0.000000 0.000000 10.000000 
Rope4_Seg02 0.000000 0.000000 0.000000 0.000000 0.000000 0.000000 10.000000 
Rope4_Seg03 0.000000 0.000000 0.000000 0.000000 0.000000 0.000000 10.000000 
Rope4_Seg04 0.000000 0.000000 0.000000 0.000000 0.000000 0.000000 10.000000 
Rope4_Seg05 0.000000 0.000000 0.000000 0.000000 0.000000 0.000000 10.000000 
Rope4_Seg06 0.000000 0.000000 0.000000 0.000000 0.000000 0.000000 10.000000 
Rope4_Seg07 0.000000 0.000000 0.000000 0.000000 0.000000 0.000000 10.000000 
Rope4_Seg08 0.000000 0.000000 0.000000 0.000000 0.000000 0.000000 10.000000 
Rope4_Seg09 0.000000 0.000000 0.000000 0.000000 0.000000 0.000000 10.000000 
L_rear_hand01 0.000000 0.000000 0.000000 0.000000 0.000000 0.000000 10.000000 
L_rear_hand02 0.000000 0.000000 0.000000 0.000000 0.000000 0.000000 10.000000 
L_rear_hand03 0.000000 0.000000 0.000000 0.000000 0.000000 0.000000 10.000000 
#Beginning of Data. Separated by tabs
#Fr	Tx	Ty	Tz	Rx	Ry	Rz	SF
[MASTER]
6 -0.000062 502.416504 271.910278 0.001660 0.001660 0.001660 571.277100
7 -0.000078 613.915100 414.500000 0.001660 0.001660 0.001660 740.744202
[root]
6 -24.211565 230.533432 1021.236633 -88.506142 -1.849554 -91.484093 1047.213623
7 -25.771540 248.226990 991.545044 -87.788818 -0.109228 -91.855423 1022.468750
[chest]
6 -84.512650 -34.090519 0.000000 -1.445195 -0.067030 -158.694214 91.129311
7 -84.512650 -34.090519 0.000000 -1.378670 -0.046590 -155.930161 91.129311
[L_mid_tent01]
6 27.299088 22.179087 -249.918686 -7.448095 14.284324 48.006912 252.381668
7 27.299082 22.179085 -249.918686 -4.777857 13.774734 55.018757 252.381668
[R_mid_tent01]
6 23.228794 24.509907 226.238495 175.635849 -11.488588 53.985836 228.744751
7 23.228794 24.509907 226.238495 172.501617 -9.294231 59.413738 228.744751
[spine01]
6 -0.361383 -0.195265 0.000000 0.002009 0.001213 27.755438 0.410763
7 -0.361383 -0.195265 0.000000 0.002025 0.001188 29.201809 0.410763
[Bip01_Neck]
6 165.484543 71.581718 0.000119 176.643677 -1.657967 43.431911 180.302734
7 165.484543 71.581718 0.000119 176.643677 -1.657967 43.431911 180.302734
[L_humerus]
6 -13.983130 -135.272980 -120.471481 123.904892 82.644485 -154.507797 181.680161
7 -13.983130 -135.272980 -120.471481 146.213715 76.254639 -134.199860 181.680161
[R_humerus]
6 -13.983309 -135.273102 125.287651 -157.809906 -82.685013 -115.403755 184.909012
7 -13.983309 -135.273102 125.287651 -159.202271 -74.917122 -116.177406 184.909012
[weapon_bone]
6 235.964890 -300.705902 0.000000 0.000000 -89.951546 -128.212341 382.234833
7 235.964890 -300.705902 0.000000 0.000000 -89.951546 -128.212341 382.234833
[Bip01_Head]
6 213.437332 185.735504 11.520618 4.969054 4.005356 -43.876755 283.171143
7 213.435959 185.739517 11.469354 4.969045 4.565113 -43.866234 283.170654
[eye_left_bone]
6 -24.626970 125.451866 -64.772606 0.000000 -90.000000 -99.840431 143.318359
7 -24.626970 125.451866 -64.772606 0.000000 -90.000000 -99.840431 143.318359
[eye_right_bone]
6 -24.626970 125.451866 64.327362 0.000000 -89.965736 80.156380 143.117676
7 -24.626970 125.451866 64.327362 0.000000 -89.965736 80.156380 143.117676
[L_forearm]
6 322.776093 0.000000 -0.000119 0.000420 -0.002309 -110.597237 322.776093
7 322.776093 0.000000 -0.000119 0.000422 -0.002309 -110.738510 322.776093
[L_front_hand]
6 241.149185 -0.042021 -3.300071 -178.667953 -1.835447 -27.422350 241.171753
7 241.149185 -0.042021 -3.300071 -178.667953 -1.835447 -27.422350 241.171753
[L_weapon_bone]
6 156.183838 0.000000 0.000000 0.000014 0.000007 0.000001 156.183838
7 156.183838 0.000000 0.000000 0.000014 0.000007 0.000001 156.183838
[L_front_hand01_01]
6 86.095154 20.947098 -0.655860 -0.349230 -0.490139 73.139862 88.609184
7 86.095154 20.947098 -0.655860 -0.335131 -0.500211 71.723785 88.609184
[L_front_hand02_01]
6 86.935165 -11.437475 24.513514 151.025055 -58.854893 -57.448074 91.046425
7 86.935165 -11.437475 24.513514 149.028946 -58.148323 -55.100948 91.046425
[L_front_hand03_01]
6 86.637497 -14.123976 -20.424902 -150.781433 57.074539 -58.996449 90.126129
7 86.637497 -14.123976 -20.424902 -148.918808 56.366669 -56.764694 90.126129
[L_front_hand01_02]
6 71.020905 -0.000179 0.000030 0.000318 -0.002326 -105.574486 71.020905
7 71.020905 -0.000179 0.000030 0.000317 -0.002326 -105.537254 71.020905
[L_front_hand02_02]
6 71.020927 -0.000119 0.000060 0.000318 -0.002326 -105.574486 71.020927
7 71.020927 -0.000119 0.000060 0.000317 -0.002326 -105.537254 71.020927
[L_front_hand03_02]
6 71.020905 -0.000060 0.000060 0.000318 -0.002326 -105.574486 71.020905
7 71.020905 -0.000060 0.000060 0.000317 -0.002326 -105.537254 71.020905
[R_forearm]
6 322.776428 -0.000060 0.000030 0.201417 0.067248 -109.249977 322.776428
7 322.776428 -0.000060 0.000030 0.201328 0.067514 -109.401535 322.776428
[R_front_hand]
6 238.847015 -0.006795 2.210259 -2.635298 -10.645461 -26.312506 238.857239
7 238.847015 -0.006795 2.210259 -2.635298 -10.645461 -26.312506 238.857239
[R_weapon_bone]
6 155.664093 0.002503 -0.000030 0.003487 0.001180 -90.988930 155.664078
7 155.664093 0.002503 -0.000030 0.003487 0.001180 -90.988930 155.664078
[R_front_hand01_01]
6 87.624611 14.231146 22.918642 -151.601074 -59.040489 58.224773 91.683487
7 87.624611 14.231146 22.918642 -149.707169 -58.394505 56.007458 91.683487
[R_front_hand02_01]
6 89.356956 14.367283 -19.491137 151.761566 57.399368 60.393955 92.579636
7 89.356956 14.367283 -19.491137 149.983444 56.758789 58.275921 92.579636
[R_front_hand03_01]
6 87.286232 -22.307278 -0.143439 0.146836 -0.431871 -73.769867 90.091743
7 87.286232 -22.307278 -0.143439 0.134949 -0.432464 -72.452232 90.091743
[R_front_hand01_02]
6 71.020905 0.000060 0.000119 0.002323 -0.000334 106.381714 71.020905
7 71.020905 0.000060 0.000119 0.002323 -0.000334 106.381714 71.020905
[R_front_hand02_02]
6 71.020844 -0.000030 -0.000119 0.002323 -0.000334 106.381714 71.020836
7 71.020844 -0.000030 -0.000119 0.002323 -0.000334 106.381714 71.020836
[R_front_hand03_02]
6 71.020905 0.000000 0.000030 0.002323 -0.000334 106.381714 71.020905
7 71.020905 0.000000 0.000030 0.002323 -0.000334 106.381714 71.020905
[null_rope01_connect]
6 328.732483 0.000000 -0.000238 -157.436401 -74.862328 -159.879272 328.732483
7 328.732483 0.000000 -0.000238 -153.987518 -76.847008 -171.768982 328.732483
[Rope1_Seg01]
6 0.000005 -0.000072 -0.000039 -139.394531 83.666893 -127.292000 0.000082
7 0.000006 -0.000079 -0.000047 2.511264 85.261909 12.734645 0.000092
[Rope1_Seg02]
6 139.999863 -0.000179 0.000000 30.815430 2.321469 -39.514774 139.999863
7 139.999863 -0.000179 0.000000 8.428287 1.043352 -22.088591 139.999863
[Rope1_Seg03]
6 139.999924 0.000060 -0.000060 38.017090 -10.499547 -21.054207 139.999924
7 139.999924 0.000060 -0.000060 24.575310 -2.483448 -27.337059 139.999924
[Rope1_Seg04]
6 139.999924 -0.000060 -0.000119 12.424569 -8.073471 -4.040838 139.999924
7 139.999924 -0.000060 -0.000119 31.203497 -9.364690 -19.548786 139.999924
[Rope1_Seg05]
6 139.999832 0.000119 -0.000060 5.366611 -4.991430 -0.832076 139.999832
7 139.999832 0.000119 -0.000060 11.432009 -7.911103 -3.995413 139.999832
[Rope1_Seg06]
6 139.999954 0.000119 -0.000060 4.280381 -5.304702 0.105505 139.999954
7 139.999954 0.000119 -0.000060 3.877577 -5.234087 0.681351 139.999954
[Rope1_Seg07]
6 139.999985 0.000060 0.000000 3.838193 -5.790150 0.431799 139.999985
7 139.999985 0.000060 0.000000 1.603806 -4.766845 2.667822 139.999985
[Rope1_Seg09]
6 121.602913 0.000119 -0.000089 -89.793175 -1.359789 0.847147 121.602913
7 121.602913 0.000119 -0.000089 -89.793175 -1.359789 0.847147 121.602913
[L_mid_hand01]
6 103.859421 1.038730 8.195221 112.493240 -49.600185 -18.031643 104.187431
7 103.859421 1.038730 8.195221 110.549706 -45.072769 -15.392938 104.187431
[L_mid_hand02]
6 105.572853 -4.139662 -10.864139 -152.303986 36.371010 -47.886745 106.211075
7 105.572853 -4.139662 -10.864139 -149.303925 33.991982 -42.687023 106.211075
[L_mid_hand03]
6 104.641464 17.579376 -3.913581 -12.027911 14.512395 53.523804 106.179977
7 104.641464 17.579376 -3.913581 -13.209494 13.449577 48.630802 106.179977
[null_rope02_connect]
6 328.732849 0.000179 -0.000119 -130.713303 78.003143 10.747926 328.732849
7 328.732849 0.000179 -0.000119 -123.823082 78.728813 24.552925 328.732849
[Rope2_Seg01]
6 0.000081 0.000061 0.000000 -58.528637 77.480942 50.537483 0.000101
7 0.000082 0.000050 0.000000 -27.652149 81.350281 83.531036 0.000096
[Rope2_Seg02]
6 139.999741 -0.000060 -0.000119 -14.380123 37.481075 10.566980 139.999756
7 139.999741 -0.000060 -0.000119 -4.933265 21.337101 6.183807 139.999756
[Rope2_Seg03]
6 140.000107 0.000030 0.000000 -36.665642 29.382910 16.976332 140.000107
7 140.000107 0.000030 0.000000 -17.450975 27.904579 11.153152 140.000107
[Rope2_Seg04]
6 139.999802 0.000000 -0.000060 -17.916670 5.129384 11.827491 139.999802
7 139.999802 0.000000 -0.000060 -25.886730 19.310230 12.196102 139.999802
[Rope2_Seg05]
6 139.999985 -0.000060 0.000119 -5.644433 -3.208261 6.523597 139.999985
7 139.999985 -0.000060 0.000119 -12.744329 1.503178 9.710140 139.999985
[Rope2_Seg06]
6 139.999893 -0.000030 -0.000119 -2.378438 -8.201050 6.111313 139.999893
7 139.999893 -0.000030 -0.000119 -5.349495 -6.572430 8.215361 139.999893
[Rope2_Seg07]
6 139.999893 0.000060 -0.000060 -1.787792 -8.761920 6.233354 139.999893
7 139.999893 0.000060 -0.000060 -2.830520 -11.650745 8.492800 139.999893
[Rope2_Seg09]
6 121.338966 0.000089 -0.000060 33.793236 -1.359788 -0.847141 121.338966
7 121.338966 0.000089 -0.000060 33.793236 -1.359788 -0.847141 121.338966
[R_mid_hand01]
6 104.680779 11.144459 -10.335981 -25.740593 41.350704 56.606117 105.778534
7 104.680779 11.144459 -10.335981 -28.447905 39.731525 52.443081 105.778534
[R_mid_hand02]
6 104.070427 2.443552 8.231699 61.361111 -58.825871 25.577074 104.424065
7 104.070427 2.443552 8.231699 63.902641 -55.672291 22.558331 104.424065
[R_mid_hand03]
6 106.028137 -11.221827 -5.996406 -174.179749 14.727765 -65.439743 106.788818
7 106.028137 -11.221827 -5.996406 -173.262527 14.339040 -61.789936 106.788818
[spine02]
6 129.756927 0.001550 0.000119 -1.179326 -3.884904 9.042870 129.756927
7 129.756927 0.001550 0.000119 -1.294479 -3.846715 10.740149 129.756927
[spine03]
6 78.614075 0.081521 -4.899010 1.964491 3.798593 17.530550 78.766617
7 78.614082 0.081529 -4.899010 1.973269 3.790539 17.670902 78.766624
[pelvis]
6 169.435242 0.051022 0.000000 -0.068724 -0.178363 16.233366 169.435257
7 169.435242 0.051022 0.000000 -0.069159 -0.178195 16.513182 169.435257
[null_rope03_connect]
6 -1.257226 -2.466202 137.391083 -50.564758 -88.289024 71.995125 137.418976
7 -1.257226 -2.466202 137.391083 -44.210930 -87.621422 60.363991 137.418976
[null_rope04_connect]
6 -1.259640 -2.480268 -137.844437 -50.564758 -88.289024 71.995125 137.872513
7 -1.259640 -2.480268 -137.844437 -44.210930 -87.621422 60.363991 137.872513
[Rope3_Seg01]
6 -0.000029 -0.000033 0.000039 -145.822037 32.456314 -103.004814 0.000059
7 -0.000029 -0.000032 0.000047 -150.126312 39.475174 -103.460678 0.000064
[Rope3_Seg02]
6 139.999924 -0.000119 0.000060 1.436560 -3.318141 -9.576131 139.999924
7 139.999924 -0.000119 0.000060 2.305312 -0.658954 -9.579859 139.999924
[Rope3_Seg03]
6 139.999924 -0.000119 0.000119 0.954909 -4.778679 -10.661588 139.999924
7 139.999924 -0.000119 0.000119 1.430358 -2.061044 -10.625475 139.999924
[Rope3_Seg04]
6 139.999924 0.000119 0.000000 0.869991 -7.655590 -12.996710 139.999924
7 139.999924 0.000119 0.000000 0.885758 -5.941998 -13.795670 139.999924
[Rope3_Seg05]
6 139.999924 -0.000238 0.000060 -0.033783 5.940745 2.084957 139.999924
7 139.999924 -0.000238 0.000060 0.006192 6.558269 0.165491 139.999924
[Rope3_Seg06]
6 139.999893 -0.000119 -0.000060 2.280716 13.226800 10.868290 139.999893
7 139.999893 -0.000119 -0.000060 2.550948 13.988014 9.510012 139.999893
[Rope3_Seg07]
6 139.999771 0.000060 -0.000119 1.795281 6.662294 4.492115 139.999771
7 139.999771 0.000060 -0.000119 2.220391 7.407071 3.784430 139.999771
[Rope3_Seg08]
6 139.999985 -0.000060 0.000000 1.466242 3.870949 2.327859 139.999985
7 139.999985 -0.000060 0.000000 1.773053 4.195360 1.739630 139.999985
[Rope3_Seg09]
6 90.185997 -0.000179 -0.000060 89.793228 -1.359877 -0.847183 90.185997
7 90.185997 -0.000179 -0.000060 89.793228 -1.359877 -0.847183 90.185997
[R_rear_hand01]
6 103.366196 -6.073594 -10.757982 -171.684540 23.302565 -59.125771 104.101845
7 103.366196 -6.073594 -10.757982 -169.896027 22.621883 -54.548435 104.101845
[R_rear_hand02]
6 100.509819 12.039542 -7.992327 -21.930750 32.777496 56.381863 101.543350
7 100.509819 12.039542 -7.992327 -24.381296 31.099253 51.752319 101.543350
[R_rear_hand03]
6 101.539970 5.215704 5.435467 79.009171 -58.663548 13.282337 101.819031
7 101.539970 5.215704 5.435467 80.187744 -54.464619 11.876318 101.819031
[Rope4_Seg01]
6 0.000010 0.000033 -0.000133 84.713295 36.723080 -51.726242 0.000137
7 0.000010 0.000032 -0.000129 86.359543 33.545776 -46.009785 0.000133
[Rope4_Seg02]
6 139.999985 0.000060 0.000119 -4.533039 -12.831814 -0.180657 139.999985
7 139.999985 0.000060 0.000119 -3.734791 -14.557502 -2.260078 139.999985
[Rope4_Seg03]
6 139.999924 0.000000 -0.000238 -2.833272 -19.341955 -2.004764 139.999924
7 139.999924 0.000000 -0.000238 -1.250625 -21.599106 -5.401398 139.999924
[Rope4_Seg04]
6 139.999985 0.000000 0.000119 3.522442 -32.983429 -12.096005 139.999985
7 139.999985 0.000000 0.000119 4.970232 -31.720850 -17.113995 139.999985
[Rope4_Seg05]
6 139.999802 -0.000060 -0.000119 1.988513 -9.051781 2.295613 139.999802
7 139.999802 -0.000060 -0.000119 1.793511 -8.006451 1.745535 139.999802
[Rope4_Seg06]
6 139.999924 0.000000 0.000060 3.781629 14.737588 15.552776 139.999924
7 139.999924 0.000000 0.000060 4.699827 11.956676 18.212641 139.999924
[Rope4_Seg07]
6 139.999802 0.000000 0.000000 0.680293 10.053132 9.844250 139.999802
7 139.999802 0.000000 0.000000 0.980061 10.951538 14.207158 139.999802
[Rope4_Seg08]
6 139.999924 0.000000 0.000119 -1.879977 3.206595 4.056994 139.999924
7 139.999924 0.000000 0.000119 -2.223165 3.203296 5.464220 139.999924
[Rope4_Seg09]
6 90.185791 0.000060 0.000060 -135.617828 2.228885 0.850567 90.185791
7 90.185791 0.000060 0.000060 -135.617828 2.228885 0.850567 90.185791
[L_rear_hand01]
6 101.696655 -8.392275 -7.654577 -30.719053 -24.879360 141.681381 102.329041
7 101.696655 -8.392275 -7.654577 -31.684452 -23.583008 144.025742 102.329041
[L_rear_hand02]
6 102.726799 -1.568258 5.773216 82.428497 41.230476 171.131027 102.900848
7 102.726799 -1.568258 5.773216 82.701553 38.753956 171.553619 102.900848
[L_rear_hand03]
6 104.552910 9.721220 -10.420293 -164.822937 -19.676035 -139.457687 105.519653
7 104.552910 9.721220 -10.420293 -163.975403 -19.004421 -142.009338 105.519653
